<svg width="22" height="14" viewBox="0 0 22 14" fill="none" xmlns="http://www.w3.org/2000/svg">
<path d="M1 0.25C0.585786 0.25 0.25 0.585786 0.25 1C0.25 1.41421 0.585786 1.75 1 1.75V0.25ZM21 1.75C21.4142 1.75 21.75 1.41421 21.75 1C21.75 0.585786 21.4142 0.25 21 0.25V1.75ZM1 1.75H21V0.25H1V1.75Z" fill="#232323"/>
<path d="M1 6.25C0.585786 6.25 0.25 6.58579 0.25 7C0.25 7.41421 0.585786 7.75 1 7.75V6.25ZM21 7.75C21.4142 7.75 21.75 7.41421 21.75 7C21.75 6.58579 21.4142 6.25 21 6.25V7.75ZM1 7.75H21V6.25H1V7.75Z" fill="#232323"/>
<path d="M1 12.25C0.585786 12.25 0.25 12.5858 0.25 13C0.25 13.4142 0.585786 13.75 1 13.75V12.25ZM21 13.75C21.4142 13.75 21.75 13.4142 21.75 13C21.75 12.5858 21.4142 12.25 21 12.25V13.75ZM1 13.75H21V12.25H1V13.75Z" fill="#232323"/>
</svg>
